<svg width="15" height="16" viewBox="0 0 15 16" fill="none" xmlns="http://www.w3.org/2000/svg">
<path fill-rule="evenodd" clip-rule="evenodd" d="M4.49999 0.5H13.5C14.3272 0.5 15 1.17004 15 1.99395V7.96975C15 8.79366 14.3272 9.4637 13.5 9.4637V3.4879C13.5 2.66399 12.8272 1.99395 12 1.99395H2.99999C2.99999 1.17004 3.67274 0.5 4.49999 0.5ZM3 12.4516H1.5C0.67275 12.4516 0 11.7816 0 10.9577V4.98185C0 4.15794 0.67275 3.48791 1.5 3.48791H10.5C11.3272 3.48791 12 4.15794 12 4.98185V10.9577C12 11.7816 11.3272 12.4516 10.5 12.4516H6.82575L3 15.5V12.4516Z" fill="#333333"/>
</svg>
