<svg width="39" height="35" viewBox="0 0 39 35" fill="none" xmlns="http://www.w3.org/2000/svg">
<path d="M19.9971 10C19.445 10 18.9973 10.4475 18.9971 10.9996L18.9939 18.7452C18.9939 19.0772 19.1257 19.3946 19.3601 19.629L24.9091 25.1769C25.2996 25.5673 25.9327 25.5673 26.3232 25.1768L26.6766 24.8234C27.0671 24.4329 27.0671 23.7997 26.6765 23.4091L21.787 18.5206C21.5993 18.333 21.4939 18.0784 21.494 17.813L21.497 11.0005C21.4973 10.448 21.0495 10 20.497 10H19.9971Z" fill="black"/>
<path d="M21.5 0C12.7014 0 5.41939 6.53443 4.19979 15H1.41422C0.523311 15 0.0771427 16.0772 0.707108 16.7071L4.54289 20.5429C4.93341 20.9334 5.56658 20.9334 5.9571 20.5429L9.79288 16.7071C10.4228 16.0772 9.97668 15 9.08578 15H6.7258C7.92167 7.91719 14.082 2.50003 21.5 2.50003C29.7715 2.50003 36.5 9.22853 36.5 17.5C36.5 25.7716 29.7715 32.5001 21.5 32.5001C17.1848 32.5001 13.1608 30.6874 10.3121 27.4933C9.94458 27.0813 9.3187 27.0014 8.88352 27.3412L8.48984 27.6485C8.05434 27.9885 7.97499 28.6193 8.3389 29.035C11.6677 32.8376 16.4097 35 21.5 35C31.1497 35 39 27.1484 39 17.5C39 7.85165 31.1497 7.25782e-05 21.5 0Z" fill="black"/>
</svg>
