<svg width="16" height="16" viewBox="0 0 16 16" fill="none" xmlns="http://www.w3.org/2000/svg">
<path d="M4.44444 -0.000244141C1.99022 -0.000244141 0 1.98998 0 4.4442V11.5553C0 14.0095 1.99022 15.9998 4.44444 15.9998H11.5556C14.0098 15.9998 16 14.0095 16 11.5553V4.4442C16 1.98998 14.0098 -0.000244141 11.5556 -0.000244141H4.44444ZM13.3333 1.77753C13.824 1.77753 14.2222 2.17576 14.2222 2.66642C14.2222 3.15709 13.824 3.55531 13.3333 3.55531C12.8427 3.55531 12.4444 3.15709 12.4444 2.66642C12.4444 2.17576 12.8427 1.77753 13.3333 1.77753ZM8 3.55531C10.4542 3.55531 12.4444 5.54553 12.4444 7.99976C12.4444 10.454 10.4542 12.4442 8 12.4442C5.54578 12.4442 3.55556 10.454 3.55556 7.99976C3.55556 5.54553 5.54578 3.55531 8 3.55531ZM8 5.33309C7.29276 5.33309 6.61448 5.61404 6.11438 6.11414C5.61428 6.61423 5.33333 7.29251 5.33333 7.99976C5.33333 8.707 5.61428 9.38528 6.11438 9.88537C6.61448 10.3855 7.29276 10.6664 8 10.6664C8.70724 10.6664 9.38552 10.3855 9.88562 9.88537C10.3857 9.38528 10.6667 8.707 10.6667 7.99976C10.6667 7.29251 10.3857 6.61423 9.88562 6.11414C9.38552 5.61404 8.70724 5.33309 8 5.33309Z" fill="#333333"/>
</svg>
