<svg width="16" height="16" viewBox="0 0 16 16" fill="none" xmlns="http://www.w3.org/2000/svg">
<path d="M0.00114182 7.75894C0.00114182 3.29884 3.49244 0 7.99953 0C12.5066 0 15.9979 3.29884 15.9979 7.75894C15.9979 12.2165 12.5066 15.5179 7.99953 15.5179C7.1922 15.5179 6.41385 15.4109 5.6875 15.2104C5.54557 15.1718 5.39461 15.1838 5.26058 15.2444L3.6669 15.9448C3.57075 15.9875 3.46555 16.0059 3.3606 15.9983C3.25565 15.9908 3.15418 15.9575 3.06514 15.9014C2.97611 15.8453 2.90225 15.7682 2.8501 15.6768C2.79794 15.5854 2.76909 15.4826 2.76609 15.3774L2.71909 13.9507C2.71608 13.8649 2.69585 13.7806 2.65961 13.7028C2.62337 13.625 2.57186 13.5553 2.50814 13.4978C1.70623 12.7746 1.06779 11.8886 0.635392 10.8991C0.202999 9.90958 -0.0133974 8.83922 0.000641918 7.75944L0.00114182 7.75894ZM5.54703 6.29823L3.201 10.032C2.96655 10.3834 3.41446 10.7923 3.74789 10.5319L6.27338 8.61827C6.35629 8.55361 6.45843 8.5185 6.56357 8.5185C6.66872 8.5185 6.77085 8.55361 6.85376 8.61827L8.71789 10.019C8.85076 10.1176 9.00251 10.1877 9.16368 10.2251C9.32486 10.2625 9.49201 10.2663 9.65471 10.2362C9.8174 10.2061 9.97216 10.1429 10.1093 10.0504C10.2465 9.95788 10.3632 9.83811 10.452 9.69855L12.7981 5.9648C13.0325 5.61337 12.5846 5.21245 12.2512 5.4649L9.72569 7.37852C9.64417 7.44307 9.54323 7.4782 9.43924 7.4782C9.33526 7.4782 9.23432 7.44307 9.1528 7.37852L7.28618 5.9778C7.15349 5.8775 7.00139 5.8059 6.83954 5.76757C6.67769 5.72923 6.50963 5.725 6.34606 5.75514C6.18248 5.78528 6.02697 5.84913 5.88941 5.94263C5.75185 6.03613 5.63525 6.15723 5.54703 6.29823Z" fill="white"/>
</svg>
