<svg width="30" height="36" viewBox="0 0 30 36" fill="none" xmlns="http://www.w3.org/2000/svg">
<path d="M25.1239 13.2188H22.59V7.43695C22.59 3.33619 19.1835 0 14.9963 0C10.8091 0 7.40255 3.33619 7.40255 7.43695V13.2188H4.8739C2.54768 13.2188 0.655151 15.1113 0.655151 17.4375V31.7812C0.655151 34.1075 2.54768 36 4.8739 36H25.1239C27.4501 36 29.3427 34.1075 29.3427 31.7812V17.4375C29.3427 15.1113 27.4501 13.2188 25.1239 13.2188ZM10.215 7.43695C10.215 4.887 12.3599 2.8125 14.9963 2.8125C17.6327 2.8125 19.7775 4.887 19.7775 7.43695V13.2188H10.215V7.43695ZM26.5302 31.7812C26.5302 32.5567 25.8993 33.1875 25.1239 33.1875H4.8739C4.0985 33.1875 3.46765 32.5567 3.46765 31.7812V17.4375C3.46765 16.6621 4.0985 16.0312 4.8739 16.0312H25.1239C25.8993 16.0312 26.5302 16.6621 26.5302 17.4375V31.7812Z" fill="white"/>
<path d="M14.9989 20.1094C13.5621 20.1094 12.3973 21.2741 12.3973 22.7109C12.3973 23.6284 12.8727 24.4343 13.59 24.8975V27.9844C13.59 28.761 14.2196 29.3906 14.9963 29.3906C15.7729 29.3906 16.4026 28.761 16.4026 27.9844V24.9008C17.1228 24.4382 17.6005 23.6306 17.6005 22.7109C17.6005 21.2741 16.4357 20.1094 14.9989 20.1094Z" fill="white"/>
</svg>
