<svg width="14" height="14" viewBox="0 0 14 14" fill="none" xmlns="http://www.w3.org/2000/svg">
<path fill-rule="evenodd" clip-rule="evenodd" d="M14.0004 6.63084H12.5267C12.5267 3.64221 10.3545 1.47368 7.36144 1.47368V0C11.1466 0 14.0004 2.85084 14.0004 6.63084ZM9.57937 6.63159C9.57937 5.08201 8.91842 4.42106 7.36885 4.42106V2.94737C9.74516 2.94737 11.0531 4.25527 11.0531 6.63159H9.57937ZM9.37144 8.24028C9.56268 8.23437 9.74873 8.30301 9.89032 8.43169L12.8848 11.1551C13.0267 11.2841 13.1127 11.4633 13.1245 11.6547C13.1363 11.8461 13.0731 12.0345 12.9482 12.18L11.5777 13.7797C11.4505 13.9077 11.2804 13.984 11.1002 13.9941C11.0759 13.9956 10.9845 14 10.8357 14C9.81737 14 6.1199 13.7841 3.16811 10.8331C-0.215473 7.44801 -0.00473652 3.08443 0.00631612 2.90022C0.0165726 2.72002 0.0926086 2.54986 0.220001 2.42201L1.81895 1.05074C1.96455 0.925964 2.15305 0.862859 2.34443 0.874828C2.53581 0.886798 2.71498 0.9729 2.8439 1.11485L5.56653 4.10864C5.69539 4.25014 5.76414 4.43623 5.75823 4.62753C5.75231 4.81882 5.6722 5.00031 5.53484 5.13359L3.72295 6.89759C3.80179 7.31906 4.06779 8.17453 4.94611 9.05359C5.82442 9.92969 6.67769 10.1957 7.10211 10.2767L8.86537 8.46338C8.99874 8.32619 9.1802 8.2462 9.37144 8.24028Z" fill="black"/>
</svg>
