<svg width="17" height="17" viewBox="0 0 17 17" fill="none" xmlns="http://www.w3.org/2000/svg">
<path d="M15.965 12.61L14.792 11.437C14.206 10.851 13.256 10.851 12.671 11.437L11.749 12.359C11.543 12.565 11.231 12.634 10.965 12.517C9.629 11.932 8.309 11.045 7.132 9.86797C5.96 8.69597 5.076 7.38197 4.49 6.05097C4.368 5.77597 4.439 5.45297 4.652 5.23997L5.478 4.41397C6.149 3.74297 6.149 2.79397 5.563 2.20797L4.39 1.03497C3.609 0.253969 2.343 0.253969 1.562 1.03497L0.910002 1.68597C0.169002 2.42697 -0.139998 3.49597 0.0600018 4.55597C0.554002 7.16897 2.072 10.03 4.521 12.479C6.97 14.928 9.831 16.446 12.444 16.94C13.504 17.14 14.573 16.831 15.314 16.09L15.965 15.439C16.746 14.658 16.746 13.392 15.965 12.61Z" fill="#333333"/>
</svg>
