<svg width="42" height="42" viewBox="0 0 42 42" fill="none" xmlns="http://www.w3.org/2000/svg">
<path d="M24.5931 8.81291H32.406C32.8375 8.81291 33.1873 9.1627 33.1873 9.59421C33.1873 10.0257 32.8375 10.3755 32.406 10.3755H24.5931C24.1616 10.3755 23.8118 10.0257 23.8118 9.59421C23.8118 9.1627 24.1616 8.81291 24.5931 8.81291Z" fill="black"/>
<path d="M32.406 12.7194H24.5931C24.1616 12.7194 23.8118 13.0692 23.8118 13.5007C23.8118 13.9322 24.1616 14.282 24.5931 14.282H32.406C32.8375 14.282 33.1873 13.9322 33.1873 13.5007C33.1873 13.0692 32.8375 12.7194 32.406 12.7194Z" fill="black"/>
<path d="M24.5931 16.6258H32.406C32.8375 16.6258 33.1873 16.9756 33.1873 17.4071C33.1873 17.8386 32.8375 18.1884 32.406 18.1884H24.5931C24.1616 18.1884 23.8118 17.8386 23.8118 17.4071C23.8118 16.9756 24.1616 16.6258 24.5931 16.6258Z" fill="black"/>
<path fill-rule="evenodd" clip-rule="evenodd" d="M28.4995 1C21.6066 1 15.9989 6.60781 15.9989 13.5007C15.9989 15.6962 16.5729 17.8437 17.6621 19.734C17.3528 20.8865 17.0437 22.0391 16.7343 23.1936C16.5758 23.7884 16.7429 24.4013 17.1813 24.8333C17.6134 25.2592 18.2421 25.4227 18.8235 25.2609C19.971 24.9534 21.1182 24.6456 22.2655 24.3378C24.1561 25.4272 26.304 26.0014 28.4995 26.0014C35.3924 26.0014 41.0002 20.3936 41.0002 13.5007C41.0002 6.60781 35.3924 1 28.4995 1ZM28.4995 24.4388C26.4783 24.4388 24.504 23.8831 22.7898 22.8317C22.6657 22.7556 22.5242 22.7164 22.3812 22.7164C22.3135 22.7164 22.2454 22.7252 22.1788 22.7431C20.9241 23.0797 19.6695 23.4163 18.4146 23.7526L18.4046 23.7553C18.3459 23.7718 18.3034 23.7453 18.2779 23.7203C18.225 23.6681 18.2388 23.6158 18.2437 23.597C18.5812 22.3374 18.9189 21.0789 19.2565 19.8206C19.3121 19.6135 19.2801 19.3925 19.1679 19.2097C18.1169 17.4958 17.5613 15.5217 17.5613 13.5007C17.5613 7.46942 22.4681 2.56259 28.4993 2.56259C34.5306 2.56259 39.4374 7.46942 39.4374 13.5007C39.4374 19.532 34.5308 24.4388 28.4995 24.4388Z" fill="black"/>
<path fill-rule="evenodd" clip-rule="evenodd" d="M28.0139 32.2253C27.7606 32.0207 24.8018 29.6305 24.0746 29.0744C23.6201 28.7268 22.9016 28.2862 21.9154 28.4735C20.9293 28.6606 19.9237 29.4411 18.841 30.8597C17.7407 32.3017 16.5955 32.5343 15.0121 31.6372C14.6365 31.4245 14.1598 31.5564 13.9472 31.9318C13.7344 32.3072 13.8664 32.7841 14.2418 32.9967C16.4858 34.2679 18.4979 33.8651 20.0631 31.8331L26.4193 36.9177C25.6552 37.7622 24.5281 38.5406 23.0955 39.0033C20.5568 39.8234 15.2913 40.1925 8.54938 33.4507C1.80744 26.7088 2.1766 21.4433 2.99673 18.9045C3.45832 17.4755 4.23406 16.3504 5.07606 15.5864L10.1603 21.9422C8.13428 23.5065 7.73347 25.5166 9.00307 27.7579C9.21574 28.1333 9.69241 28.2653 10.068 28.0526C10.4435 27.84 10.5754 27.3632 10.3627 26.9877C9.46583 25.4045 9.69843 24.2595 11.1403 23.1592C12.559 22.0765 13.3395 21.0708 13.5265 20.0847C13.7136 19.0984 13.2732 18.3801 12.9256 17.9255C12.3694 17.1983 9.97906 14.2391 9.77468 13.9862C9.12972 13.1204 8.08552 12.7333 6.90655 12.9242C4.65744 13.2883 2.43818 15.55 1.50969 18.4242C0.79395 20.6398 0.832624 23.1393 1.62165 25.6524C2.55686 28.6316 4.51595 31.6271 7.44439 34.5556C10.3728 37.484 13.3683 39.4431 16.3475 40.3783C17.667 40.7926 18.9827 41 20.2555 41C21.407 41 22.5233 40.8302 23.5758 40.4903C26.45 39.5618 28.7117 37.3425 29.0757 35.0934C29.2668 33.9144 28.8798 32.8702 28.0139 32.2253ZM7.15641 14.4667C7.76886 14.3676 8.22998 14.5223 8.52695 14.9268C8.53406 14.9365 8.54149 14.946 8.54899 14.9554C8.57477 14.9872 11.1283 18.1475 11.6844 18.8747C11.9655 19.2424 12.0487 19.4914 11.9914 19.7935C11.9438 20.0445 11.779 20.4108 11.3301 20.9029L6.3766 14.7106C6.64513 14.5895 6.9078 14.5069 7.15641 14.4667ZM21.1035 30.6643C21.5925 30.2196 21.9568 30.0561 22.2067 30.0087C22.5087 29.9516 22.7578 30.0346 23.1255 30.3157C23.827 30.8522 26.793 33.2478 27.03 33.4392L27.0448 33.4511C27.0541 33.4587 27.0637 33.4661 27.0734 33.4732C27.4778 33.7701 27.6326 34.2313 27.5335 34.8437C27.4936 35.0899 27.4122 35.3498 27.2931 35.6156L21.1035 30.6643Z" fill="black"/>
<path d="M24.5931 8.81291H32.406C32.8375 8.81291 33.1873 9.1627 33.1873 9.59421C33.1873 10.0257 32.8375 10.3755 32.406 10.3755H24.5931C24.1616 10.3755 23.8118 10.0257 23.8118 9.59421C23.8118 9.1627 24.1616 8.81291 24.5931 8.81291Z" stroke="black" stroke-width="0.5"/>
<path d="M32.406 12.7194H24.5931C24.1616 12.7194 23.8118 13.0692 23.8118 13.5007C23.8118 13.9322 24.1616 14.282 24.5931 14.282H32.406C32.8375 14.282 33.1873 13.9322 33.1873 13.5007C33.1873 13.0692 32.8375 12.7194 32.406 12.7194Z" stroke="black" stroke-width="0.5"/>
<path d="M24.5931 16.6258H32.406C32.8375 16.6258 33.1873 16.9756 33.1873 17.4071C33.1873 17.8386 32.8375 18.1884 32.406 18.1884H24.5931C24.1616 18.1884 23.8118 17.8386 23.8118 17.4071C23.8118 16.9756 24.1616 16.6258 24.5931 16.6258Z" stroke="black" stroke-width="0.5"/>
<path fill-rule="evenodd" clip-rule="evenodd" d="M28.4995 1C21.6066 1 15.9989 6.60781 15.9989 13.5007C15.9989 15.6962 16.5729 17.8437 17.6621 19.734C17.3528 20.8865 17.0437 22.0391 16.7343 23.1936C16.5758 23.7884 16.7429 24.4013 17.1813 24.8333C17.6134 25.2592 18.2421 25.4227 18.8235 25.2609C19.971 24.9534 21.1182 24.6456 22.2655 24.3378C24.1561 25.4272 26.304 26.0014 28.4995 26.0014C35.3924 26.0014 41.0002 20.3936 41.0002 13.5007C41.0002 6.60781 35.3924 1 28.4995 1ZM28.4995 24.4388C26.4783 24.4388 24.504 23.8831 22.7898 22.8317C22.6657 22.7556 22.5242 22.7164 22.3812 22.7164C22.3135 22.7164 22.2454 22.7252 22.1788 22.7431C20.9241 23.0797 19.6695 23.4163 18.4146 23.7526L18.4046 23.7553C18.3459 23.7718 18.3034 23.7453 18.2779 23.7203C18.225 23.6681 18.2388 23.6158 18.2437 23.597C18.5812 22.3374 18.9189 21.0789 19.2565 19.8206C19.3121 19.6135 19.2801 19.3925 19.1679 19.2097C18.1169 17.4958 17.5613 15.5217 17.5613 13.5007C17.5613 7.46942 22.4681 2.56259 28.4993 2.56259C34.5306 2.56259 39.4374 7.46942 39.4374 13.5007C39.4374 19.532 34.5308 24.4388 28.4995 24.4388Z" stroke="black" stroke-width="0.5"/>
<path fill-rule="evenodd" clip-rule="evenodd" d="M28.0139 32.2253C27.7606 32.0207 24.8018 29.6305 24.0746 29.0744C23.6201 28.7268 22.9016 28.2862 21.9154 28.4735C20.9293 28.6606 19.9237 29.4411 18.841 30.8597C17.7407 32.3017 16.5955 32.5343 15.0121 31.6372C14.6365 31.4245 14.1598 31.5564 13.9472 31.9318C13.7344 32.3072 13.8664 32.7841 14.2418 32.9967C16.4858 34.2679 18.4979 33.8651 20.0631 31.8331L26.4193 36.9177C25.6552 37.7622 24.5281 38.5406 23.0955 39.0033C20.5568 39.8234 15.2913 40.1925 8.54938 33.4507C1.80744 26.7088 2.1766 21.4433 2.99673 18.9045C3.45832 17.4755 4.23406 16.3504 5.07606 15.5864L10.1603 21.9422C8.13428 23.5065 7.73347 25.5166 9.00307 27.7579C9.21574 28.1333 9.69241 28.2653 10.068 28.0526C10.4435 27.84 10.5754 27.3632 10.3627 26.9877C9.46583 25.4045 9.69843 24.2595 11.1403 23.1592C12.559 22.0765 13.3395 21.0708 13.5265 20.0847C13.7136 19.0984 13.2732 18.3801 12.9256 17.9255C12.3694 17.1983 9.97906 14.2391 9.77468 13.9862C9.12972 13.1204 8.08552 12.7333 6.90655 12.9242C4.65744 13.2883 2.43818 15.55 1.50969 18.4242C0.79395 20.6398 0.832624 23.1393 1.62165 25.6524C2.55686 28.6316 4.51595 31.6271 7.44439 34.5556C10.3728 37.484 13.3683 39.4431 16.3475 40.3783C17.667 40.7926 18.9827 41 20.2555 41C21.407 41 22.5233 40.8302 23.5758 40.4903C26.45 39.5618 28.7117 37.3425 29.0757 35.0934C29.2668 33.9144 28.8798 32.8702 28.0139 32.2253ZM7.15641 14.4667C7.76886 14.3676 8.22998 14.5223 8.52695 14.9268C8.53406 14.9365 8.54149 14.946 8.54899 14.9554C8.57477 14.9872 11.1283 18.1475 11.6844 18.8747C11.9655 19.2424 12.0487 19.4914 11.9914 19.7935C11.9438 20.0445 11.779 20.4108 11.3301 20.9029L6.3766 14.7106C6.64513 14.5895 6.9078 14.5069 7.15641 14.4667ZM21.1035 30.6643C21.5925 30.2196 21.9568 30.0561 22.2067 30.0087C22.5087 29.9516 22.7578 30.0346 23.1255 30.3157C23.827 30.8522 26.793 33.2478 27.03 33.4392L27.0448 33.4511C27.0541 33.4587 27.0637 33.4661 27.0734 33.4732C27.4778 33.7701 27.6326 34.2313 27.5335 34.8437C27.4936 35.0899 27.4122 35.3498 27.2931 35.6156L21.1035 30.6643Z" stroke="black" stroke-width="0.5"/>
</svg>
