<svg width="16" height="17" viewBox="0 0 16 17" fill="none" xmlns="http://www.w3.org/2000/svg">
<path fill-rule="evenodd" clip-rule="evenodd" d="M15.8333 8.16585H14.1666C14.1666 4.78585 11.71 2.33335 8.32498 2.33335V0.666687C12.6058 0.666687 15.8333 3.89085 15.8333 8.16585ZM10.8333 8.16668C10.8333 6.41418 10.0858 5.66668 8.33331 5.66668V4.00002C11.0208 4.00002 12.5 5.47918 12.5 8.16668H10.8333ZM10.5981 9.98604C10.8144 9.97936 11.0248 10.057 11.185 10.2025L14.5716 13.2825C14.7321 13.4284 14.8293 13.6311 14.8427 13.8476C14.856 14.064 14.7845 14.2771 14.6433 14.4417L13.0933 16.2508C12.9494 16.3956 12.7571 16.4819 12.5533 16.4933C12.5258 16.495 12.4225 16.5 12.2541 16.5C11.1025 16.5 6.92081 16.2558 3.58248 12.9183C-0.244191 9.09002 -0.00585777 4.15502 0.00664223 3.94668C0.0182419 3.74289 0.104235 3.55045 0.248309 3.40585L2.05664 1.85502C2.22131 1.7139 2.4345 1.64253 2.65094 1.65607C2.86738 1.6696 3.07001 1.76698 3.21581 1.92752L6.29498 5.31335C6.44071 5.47338 6.51847 5.68384 6.51178 5.90019C6.50509 6.11653 6.41449 6.32179 6.25914 6.47252L4.20998 8.46752C4.29914 8.94418 4.59998 9.91168 5.59331 10.9058C6.58664 11.8967 7.55164 12.1975 8.03164 12.2892L10.0258 10.2383C10.1766 10.0832 10.3819 9.99273 10.5981 9.98604Z" fill="white"/>
</svg>
