<svg width="36" height="36" viewBox="0 0 36 36" fill="none" xmlns="http://www.w3.org/2000/svg">
<path d="M14.0576 24.4054H18.8374V27.217H14.0576V24.4054ZM8.78549 24.0541C7.81485 24.0541 7.02823 24.8407 7.02823 25.8113C7.02823 26.7817 7.81485 27.5686 8.78549 27.5686C9.75613 27.5686 10.5428 26.7817 10.5428 25.8113C10.5428 24.8407 9.75613 24.0541 8.78549 24.0541ZM28.2566 16.3781H14.0576V19.1898H28.2566V16.3781ZM8.78549 16.0269C7.81485 16.0269 7.02823 16.8135 7.02823 17.7841C7.02823 18.7548 7.81485 19.5414 8.78549 19.5414C9.75613 19.5414 10.5428 18.7548 10.5428 17.7841C10.5428 16.8135 9.75613 16.0269 8.78549 16.0269ZM28.2566 8.84311H14.0576V11.6548H28.2566V8.84311ZM8.78549 8.49155C7.81485 8.49155 7.02823 9.27845 7.02823 10.2488C7.02823 11.2195 7.81485 12.0064 8.78549 12.0064C9.75613 12.0064 10.5428 11.2195 10.5428 10.2488C10.5428 9.27845 9.75613 8.49155 8.78549 8.49155ZM2.81058 31.7725V4.21765C2.81058 3.44229 3.44119 2.81168 4.21655 2.81168H31.7714C32.5464 2.81168 33.1771 3.44229 33.1771 4.21765V20.1039H35.9887V4.21765C35.9887 1.89212 34.0969 0 31.7714 0H4.21655C1.89102 0 -0.00109863 1.89212 -0.00109863 4.21765V31.7725C-0.00109863 34.098 1.89102 35.9898 4.21655 35.9898H20.4541V33.1782H4.21655C3.44119 33.1782 2.81058 32.5475 2.81058 31.7725ZM34.0107 36L31.2108 33.2001C30.2635 33.7662 29.1569 34.0919 27.9756 34.0919C24.4872 34.0919 21.6491 31.2539 21.6491 27.7657C21.6491 24.2773 24.4872 21.4393 27.9756 21.4393C31.4637 21.4393 34.3018 24.2773 34.3018 27.7657C34.3018 29.0564 33.9129 30.2577 33.2468 31.2597L35.9989 34.0117L34.0107 36ZM27.9756 31.2803C29.9136 31.2803 31.4901 29.7037 31.4901 27.7657C31.4901 25.8278 29.9136 24.2509 27.9756 24.2509C26.0376 24.2509 24.4608 25.8278 24.4608 27.7657C24.4608 29.7037 26.0376 31.2803 27.9756 31.2803Z" fill="white"/>
</svg>
