<svg width="17" height="16" viewBox="0 0 17 16" fill="none" xmlns="http://www.w3.org/2000/svg">
<path fill-rule="evenodd" clip-rule="evenodd" d="M9 16C13.4183 16 17 12.4183 17 8C17 3.58172 13.4183 0 9 0C4.58172 0 1 3.58172 1 8C1 12.4183 4.58172 16 9 16ZM9 12C11.2091 12 13 10.2091 13 8C13 5.79086 11.2091 4 9 4C6.79086 4 5 5.79086 5 8C5 10.2091 6.79086 12 9 12Z" fill="#212839"/>
<path d="M4.9282 1C1.10186 3.20914 -0.209139 8.10186 2 11.9282C4.20914 15.7545 9.10186 17.0655 12.9282 14.8564L10.9282 11.3923C9.01503 12.4969 6.56867 11.8414 5.4641 9.9282C4.35953 8.01503 5.01503 5.56867 6.9282 4.4641L4.9282 1Z" fill="#5FC98B"/>
</svg>
