<svg width="12" height="12" viewBox="0 0 12 12" fill="none" xmlns="http://www.w3.org/2000/svg">
<path d="M11.9666 4.30801C11.9289 4.19694 11.8595 4.09935 11.767 4.02728C11.6744 3.95521 11.5628 3.91182 11.4459 3.90246L8.02575 3.6307L6.54575 0.354534C6.49861 0.249015 6.42195 0.159392 6.32501 0.0964823C6.22806 0.0335723 6.11498 6.3519e-05 5.99941 9.02152e-08C5.88385 -6.33385e-05 5.77073 0.0333213 5.67372 0.0961249C5.57671 0.158928 5.49994 0.248467 5.45269 0.353934L3.97269 3.6307L0.552543 3.90246C0.437631 3.91157 0.327775 3.95358 0.236117 4.02349C0.14446 4.09339 0.0748816 4.18822 0.0357069 4.29663C-0.00346777 4.40504 -0.0105802 4.52244 0.0152207 4.63479C0.0410216 4.74714 0.0986431 4.84967 0.181192 4.93013L2.70866 7.394L1.81478 11.2647C1.78763 11.3819 1.79633 11.5045 1.83974 11.6166C1.88315 11.7288 1.95927 11.8253 2.05822 11.8937C2.15717 11.962 2.27439 11.9991 2.39465 12C2.51491 12.0009 2.63267 11.9656 2.73265 11.8988L5.99922 9.72109L9.26579 11.8988C9.36798 11.9667 9.48849 12.0016 9.61112 11.9989C9.73375 11.9962 9.85262 11.956 9.95173 11.8838C10.0508 11.8115 10.1255 11.7106 10.1655 11.5947C10.2056 11.4788 10.2092 11.3533 10.1759 11.2353L9.07861 7.3958L11.7999 4.94692C11.978 4.78615 12.0434 4.53538 11.9666 4.30801Z" fill="#F2C94C"/>
</svg>
