<svg width="13" height="12" viewBox="0 0 13 12" fill="none" xmlns="http://www.w3.org/2000/svg">
<path d="M2.80818 11.2651C2.78763 11.3531 2.78726 11.4446 2.8071 11.5327C2.82695 11.6209 2.86649 11.7034 2.92276 11.7741C2.97904 11.8448 3.05058 11.9019 3.13204 11.941C3.2135 11.9801 3.30276 12.0003 3.39313 12C3.51163 12 3.62749 11.965 3.72609 11.8992L6.99277 9.72142L10.2594 11.8992C10.3616 11.9671 10.4822 12.002 10.6048 11.9993C10.7274 11.9966 10.8463 11.9564 10.9454 11.8842C11.0445 11.8119 11.1191 11.711 11.1592 11.5951C11.1993 11.4791 11.2029 11.3537 11.1696 11.2357L10.0723 7.39605L12.7936 4.94709C12.8808 4.86861 12.943 4.76631 12.9726 4.65283C13.0023 4.53935 12.998 4.41967 12.9603 4.3086C12.9227 4.19753 12.8533 4.09993 12.7607 4.02788C12.6682 3.95583 12.5566 3.91248 12.4396 3.9032L9.01937 3.63082L7.53932 0.354546C7.49218 0.249023 7.41551 0.159398 7.31857 0.0964856C7.22162 0.0335734 7.10854 6.35211e-05 6.99297 9.02182e-08C6.87739 -6.33407e-05 6.76427 0.0333224 6.66726 0.0961281C6.57024 0.158934 6.49348 0.248475 6.44622 0.353946L4.96617 3.63082L1.54591 3.9026C1.43099 3.9117 1.32113 3.95372 1.22947 4.02362C1.13781 4.09353 1.06823 4.18836 1.02906 4.29677C0.989879 4.40519 0.982767 4.52259 1.00857 4.63495C1.03437 4.7473 1.09199 4.84983 1.17455 4.93029L3.7027 7.39425L2.80818 11.2651ZM6.99277 2.05838L8.21785 4.77071L8.57062 4.79891H8.57121L10.9542 4.98789L8.99177 6.75411L8.99117 6.75531L8.7134 7.00489L8.81599 7.36305V7.36485L9.56772 9.9956L6.99277 8.27916V2.05838Z" fill="#F2C94C"/>
</svg>
