<svg width="26" height="36" viewBox="0 0 26 36" fill="none" xmlns="http://www.w3.org/2000/svg">
<path d="M15.1083 36C18.5976 36 21.4364 33.1612 21.4364 29.6719V29.5658C23.8405 29.0758 25.6552 26.9452 25.6552 24.3984C25.6552 21.4907 23.2895 19.125 20.3817 19.125C17.4739 19.125 15.1083 21.4907 15.1083 24.3984C15.1083 26.9451 16.9229 29.0758 19.327 29.5658V29.6719C19.327 31.9981 17.4345 33.8906 15.1083 33.8906C12.7821 33.8906 10.8895 31.9981 10.8895 29.6719V19.0661C15.629 18.5397 19.327 14.5103 19.327 9.63281V3.16406C19.327 1.4194 17.9076 0 16.163 0H12.9989V2.10938H16.163C16.7445 2.10938 17.2177 2.58251 17.2177 3.16406V9.63281C17.2177 13.7037 13.9057 17.0156 9.83484 17.0156C5.76396 17.0156 2.45203 13.7037 2.45203 9.63281V3.16406C2.45203 2.58251 2.92516 2.10938 3.50671 2.10938H6.67078V0H3.50671C1.76205 0 0.342651 1.4194 0.342651 3.16406V9.63281C0.342651 14.5103 4.04067 18.5397 8.78015 19.0661V29.6719C8.78015 33.1612 11.6189 36 15.1083 36ZM17.2177 24.3984C17.2177 22.6538 18.6371 21.2344 20.3817 21.2344C22.1264 21.2344 23.5458 22.6538 23.5458 24.3984C23.5458 26.1431 22.1264 27.5625 20.3817 27.5625C18.6371 27.5625 17.2177 26.1431 17.2177 24.3984Z" fill="white" stroke="white" stroke-width="0.4"/>
</svg>
