<svg width="40" height="40" viewBox="0 0 40 40" fill="none" xmlns="http://www.w3.org/2000/svg">
<path d="M33.2782 3.05289H34.8232C36.0729 3.05289 37.0897 4.03773 37.0897 5.2483V16.329C37.0897 21.2844 32.8242 25.3158 27.5813 25.3158C22.3657 25.3158 18.0728 21.2957 18.0728 16.329V5.2483C18.0728 4.03773 19.0896 3.05289 20.3393 3.05289H21.8843V1.95642C21.8843 1.3362 22.3872 0.833374 23.0074 0.833374C23.6276 0.833374 24.1304 1.3362 24.1304 1.95642V6.32066C24.1304 6.94088 23.6276 7.4437 23.0074 7.4437C22.3872 7.4437 21.8843 6.94088 21.8843 6.32066V5.29898L20.8993 5.29883C20.3303 5.29867 20.325 5.29866 20.3207 5.30065C20.3203 5.30085 20.3199 5.30106 20.3189 5.3013V16.329C20.3189 20.0259 23.5587 23.0494 27.541 23.0689C31.5911 23.0917 34.8436 20.031 34.8436 16.329V5.3013L34.8418 5.30068C34.8367 5.29866 34.8309 5.29867 34.2587 5.29883L33.2782 5.29898V6.32066C33.2782 6.94088 32.7753 7.4437 32.1551 7.4437C31.5349 7.4437 31.0321 6.94088 31.0321 6.32066V1.95642C31.0321 1.3362 31.5349 0.833374 32.1551 0.833374C32.7753 0.833374 33.2782 1.3362 33.2782 1.95642V3.05289Z" fill="black"/>
<path d="M27.5813 30.1075C25.8003 30.1075 24.325 28.7772 24.0946 27.0582C26.3176 27.718 28.7693 27.741 31.0679 27.0574C30.8379 28.7768 29.3626 30.1075 27.5813 30.1075Z" fill="black"/>
<path d="M6.01876 30.7064C7.96218 30.7064 9.53764 29.131 9.53764 27.1875C9.53764 25.2441 7.96218 23.6687 6.01876 23.6687C4.07533 23.6687 2.49988 25.2441 2.49988 27.1875C2.49988 29.131 4.07533 30.7064 6.01876 30.7064Z" fill="black"/>
<path d="M20.3938 36.9206C22.5802 36.9206 24.9601 35.2594 25.9773 32.1248C26.7155 32.339 27.4781 32.4051 28.2652 32.3116C27.066 36.6766 23.6985 39.1667 20.3938 39.1667C15.6894 39.1667 12.0832 34.8892 12.0832 30.0574V14.0105C12.0832 13.5544 11.8077 12.973 11.469 12.7143C10.9899 12.3485 10.3133 12.1387 9.61251 12.1387C8.24389 12.1387 7.1418 13.1626 7.1418 14.0105V21.5332C6.3973 21.3855 5.63887 21.3858 4.89571 21.5332V14.0105C4.89571 11.8168 7.0998 9.89262 9.61251 9.89262C10.8134 9.89262 11.9568 10.2608 12.8322 10.9293C13.7506 11.6306 14.3293 12.8886 14.3293 13.9887V30.0574C14.3293 33.7777 17.1065 36.9206 20.3938 36.9206Z" fill="black"/>
</svg>
