<svg width="40" height="40" viewBox="0 0 40 40" fill="none" xmlns="http://www.w3.org/2000/svg">
<path d="M5 30L10 35M5 35L10 30M17.5 30L22.5 35M17.5 35L22.5 30M30 30L35 35M30 35L35 30M25.8967 21.3967C25.47 19.3517 23.005 17.7784 20 17.7784C16.995 17.7784 14.53 19.3517 14.1033 21.3967M27.071 6.26231C30.9763 10.1676 30.9763 16.4992 27.071 20.4044C23.1658 24.3097 16.8341 24.3097 12.9289 20.4044C9.02362 16.4992 9.02362 10.1675 12.9289 6.26231C16.8341 2.35706 23.1658 2.35706 27.071 6.26231ZM22.357 8.75467C23.6587 10.0564 23.6587 12.167 22.357 13.4687C21.0552 14.7705 18.9447 14.7705 17.6429 13.4687C16.3412 12.167 16.3412 10.0564 17.6429 8.75467C18.9447 7.45293 21.0552 7.45293 22.357 8.75467Z" stroke="black" stroke-width="2.2" stroke-linecap="round" stroke-linejoin="round"/>
</svg>
