<svg width="15" height="11" viewBox="0 0 15 11" fill="none" xmlns="http://www.w3.org/2000/svg">
<path d="M10.1786 10.7143H1.07143C0.787268 10.7143 0.514746 10.6014 0.313814 10.4005C0.112882 10.1995 0 9.92702 0 9.64286V1.07143C0 0.787268 0.112882 0.514746 0.313814 0.313814C0.514746 0.112882 0.787268 0 1.07143 0H10.1786C10.4627 0 10.7353 0.112882 10.9362 0.313814C11.1371 0.514746 11.25 0.787268 11.25 1.07143V3.24643L14.1536 1.17321C14.2335 1.11628 14.3276 1.08242 14.4255 1.07531C14.5234 1.06819 14.6213 1.08812 14.7087 1.13289C14.796 1.17767 14.8694 1.24558 14.9208 1.32922C14.9721 1.41285 14.9995 1.50899 15 1.60714V9.10714C14.9995 9.20529 14.9721 9.30143 14.9208 9.38507C14.8694 9.4687 14.796 9.53661 14.7087 9.58139C14.6213 9.62617 14.5234 9.64609 14.4255 9.63898C14.3276 9.63187 14.2335 9.598 14.1536 9.54107L11.25 7.46786V9.64286C11.25 9.92702 11.1371 10.1995 10.9362 10.4005C10.7353 10.6014 10.4627 10.7143 10.1786 10.7143Z" fill="#333333"/>
</svg>
