<svg width="36" height="36" viewBox="0 0 36 36" fill="none" xmlns="http://www.w3.org/2000/svg">
<path d="M35.9989 18C35.9989 21.553 34.9445 25.0085 32.9491 27.9926C32.5176 28.6381 31.6442 28.8116 30.9985 28.3802C30.3528 27.9484 30.1794 27.075 30.6109 26.4295C32.296 23.9093 33.1864 20.9946 33.1864 18C33.1864 9.62567 26.3732 2.8125 17.9989 2.8125C9.62457 2.8125 2.8114 9.62567 2.8114 18C2.8114 26.3743 9.62457 33.1875 17.9989 33.1875C20.7765 33.1875 23.4934 32.4311 25.8555 31.0004C26.5199 30.598 27.3845 30.8103 27.7869 31.4747C28.1893 32.1389 27.977 33.0035 27.3128 33.4059C24.511 35.103 21.2904 36 17.9989 36C13.191 36 8.67068 34.1277 5.27097 30.7279C1.87125 27.3282 -0.00109863 22.8079 -0.00109863 18C-0.00109863 13.1921 1.87125 8.67178 5.27097 5.27206C8.67068 1.87234 13.191 0 17.9989 0C22.8068 0 27.3271 1.87234 30.7268 5.27206C34.1266 8.67178 35.9989 13.1921 35.9989 18ZM18.0692 5.625C17.2925 5.625 16.663 6.25452 16.663 7.03125V15.5646C15.8225 16.051 15.2567 16.959 15.2567 18C15.2567 19.5532 16.516 20.8125 18.0692 20.8125C18.3211 20.8125 18.565 20.779 18.7973 20.7169L22.5242 24.4435C22.7986 24.7181 23.1586 24.8555 23.5184 24.8555C23.8782 24.8555 24.2383 24.7181 24.5127 24.4435C25.062 23.8944 25.062 23.004 24.5127 22.455L20.7861 18.7281C20.8482 18.4958 20.8817 18.2519 20.8817 18C20.8817 16.959 20.3159 16.051 19.4755 15.5646V7.03125C19.4755 6.25452 18.8459 5.625 18.0692 5.625Z" fill="white"/>
</svg>
