<svg width="16" height="16" viewBox="0 0 16 16" fill="none" xmlns="http://www.w3.org/2000/svg">
<path d="M0.0032107 16.0002L1.08481 12.0258C0.372121 10.8041 -0.00231251 9.41463 1.07458e-05 8.00024C1.07458e-05 3.58184 3.58161 0.000244141 8.00001 0.000244141C12.4184 0.000244141 16 3.58184 16 8.00024C16 12.4186 12.4184 16.0002 8.00001 16.0002C6.58623 16.0025 5.19733 15.6284 3.97601 14.9162L0.0032107 16.0002ZM5.11281 4.24664C5.0095 4.25306 4.90855 4.28027 4.81601 4.32664C4.72923 4.37578 4.65001 4.43722 4.58081 4.50904C4.48481 4.59944 4.43041 4.67784 4.37201 4.75384C4.07634 5.13864 3.9173 5.61097 3.92001 6.09624C3.92161 6.48824 4.02401 6.86984 4.18401 7.22664C4.51121 7.94824 5.04961 8.71224 5.76081 9.42024C5.93201 9.59064 6.09921 9.76184 6.27921 9.92104C7.16192 10.6982 8.21381 11.2587 9.35121 11.5578L9.80641 11.6274C9.95441 11.6354 10.1024 11.6242 10.2512 11.617C10.4842 11.605 10.7117 11.5419 10.9176 11.4322C11.0224 11.3783 11.1246 11.3195 11.224 11.2562C11.224 11.2562 11.2584 11.2338 11.324 11.1842C11.432 11.1042 11.4984 11.0474 11.588 10.9538C11.6544 10.885 11.712 10.8042 11.756 10.7122C11.8184 10.5818 11.8808 10.333 11.9064 10.1258C11.9256 9.96744 11.92 9.88104 11.9176 9.82744C11.9144 9.74184 11.8432 9.65304 11.7656 9.61544L11.3 9.40664C11.3 9.40664 10.604 9.10344 10.1792 8.90984C10.1344 8.89032 10.0864 8.8792 10.0376 8.87704C9.98287 8.87142 9.92757 8.87758 9.87541 8.8951C9.82325 8.91262 9.77544 8.94111 9.73521 8.97864V8.97704C9.73121 8.97704 9.67761 9.02264 9.09921 9.72344C9.06601 9.76805 9.02028 9.80176 8.96785 9.82028C8.91542 9.8388 8.85866 9.8413 8.80481 9.82744C8.75268 9.8135 8.70162 9.79585 8.65201 9.77464C8.55281 9.73304 8.51841 9.71704 8.45041 9.68744L8.44641 9.68584C7.98873 9.48602 7.56499 9.21611 7.19041 8.88584C7.08961 8.79784 6.99601 8.70184 6.90001 8.60904C6.58527 8.30763 6.31098 7.96665 6.08401 7.59464L6.03681 7.51864C6.00291 7.46757 5.9755 7.41248 5.95521 7.35464C5.92481 7.23704 6.00401 7.14264 6.00401 7.14264C6.00401 7.14264 6.19841 6.92984 6.28881 6.81464C6.36408 6.7189 6.43431 6.6193 6.49921 6.51624C6.59361 6.36424 6.62321 6.20824 6.57361 6.08744C6.34961 5.54024 6.11761 4.99544 5.87921 4.45464C5.83201 4.34744 5.69201 4.27064 5.56481 4.25544C5.52161 4.25064 5.47841 4.24584 5.43521 4.24264C5.32777 4.2373 5.22012 4.23837 5.11281 4.24584V4.24664Z" fill="white"/>
</svg>
