<svg width="16" height="12" viewBox="0 0 16 12" fill="none" xmlns="http://www.w3.org/2000/svg">
<path d="M15.7235 1.79395C15.5276 0.943042 14.8316 0.315264 13.9938 0.221618C12.0097 0.000136404 10.0015 -0.00101967 8.00256 0.000136464C6.00328 -0.00101967 3.99476 0.000136404 2.01067 0.221618C1.17331 0.315264 0.477812 0.943042 0.28193 1.79395C0.00313807 3.00574 0 4.32852 0 5.57615C0 6.82377 0 8.14639 0.278792 9.35801C0.474343 10.2088 1.17 10.8365 2.00787 10.9303C3.99178 11.152 6.00014 11.1531 7.99942 11.152C9.99903 11.1531 12.0069 11.152 13.9906 10.9303C14.828 10.8367 15.5242 10.2089 15.7201 9.35801C15.999 8.14622 16 6.82361 16 5.57615C16 4.32852 16.0023 3.00574 15.7235 1.79395ZM5.93524 8.05951C5.93524 6.28964 5.93524 4.53827 5.93524 2.76824C7.63095 3.65301 9.31543 4.53183 11.0219 5.42205C9.32071 6.30434 7.63541 7.17788 5.93524 8.05951Z" fill="#333333"/>
</svg>
